<?xml version="1.0" encoding="UTF-8"?>
<svg xmlns="http://www.w3.org/2000/svg" onmouseup="{ if(window.parent.document.onmouseup) window.parent.document.onmouseup(arguments[0]);}" viewBox="0 0 36 36" height="128" width="128" xmlns:xlink="http://www.w3.org/1999/xlink">
  <defs>
    <circle id="image-b" cx="18" cy="18" r="16"/>
    <filter id="image-a" width="118.8%" height="118.8%" x="-9.4%" y="-9.4%" filterUnits="objectBoundingBox">
      <feOffset in="SourceAlpha" result="shadowOffsetOuter1"/>
      <feGaussianBlur in="shadowOffsetOuter1" result="shadowBlurOuter1" stdDeviation="1"/>
      <feComposite in="shadowBlurOuter1" in2="SourceAlpha" operator="out" result="shadowBlurOuter1"/>
      <feColorMatrix in="shadowBlurOuter1" values="0 0 0 0 0   0 0 0 0 0   0 0 0 0 0  0 0 0 0.5 0"/>
    </filter>
  </defs>
  <g fill="none" fill-rule="evenodd">
    <rect width="128" height="128" fill="#03FF00" opacity="0"/>
    <use xmlns:xlink="http://www.w3.org/1999/xlink" fill="#000" filter="url(#image-a)" xlink:href="#image-b"/>
    <circle cx="18" cy="18" r="15" fill="#000" stroke="#FFF" stroke-linejoin="square" stroke-width="2"/>
    <circle cx="21.25" cy="15.25" r="1.25" fill="#FFF" fill-rule="nonzero"/>
    <path fill="#FFF" fill-rule="nonzero" d="M26.437,11.0008599 L9.562,11.0008599 C9.26914622,10.9849138 9.01823992,11.20814 9,11.5008599 L9,24.5008599 C9.01823992,24.7935798 9.26914622,25.016806 9.562,25.0008599 L26.437,25.0008599 C26.7302336,25.0173765 26.9817649,24.7939917 27,24.5008599 L27,11.5008599 C26.9817649,11.2077282 26.7302336,10.9843434 26.437,11.0008599 Z M26,20.0008599 C25.0540079,19.4481396 23.9994769,19.1069778 22.909,19.0008599 C21.44,19.0008599 20.171,21.0008599 18.701,21.0008599 C17.231,21.0008599 15.362,17.0008599 13.892,17.0008599 C12.556,17.0008599 10,21.0008599 10,21.0008599 L10,12.0008599 L26,12.0008599 L26,20.0008599 Z"/>
  </g>
</svg>